<svg xmlns="http://www.w3.org/2000/svg"  viewBox="0 0 80 80" width="16px" height="16px"><path fill="#66798f" d="M62,36h-4V24c0-9.9-8.1-18-18-18c-9.9,0-18,8.1-18,18v12h-4V24c0-12.1,9.9-22,22-22s22,9.9,22,22V36z"/><path fill="#99c99e" d="M4.5,75.5V38c0-4.1,3.4-7.5,7.5-7.5h56c4.1,0,7.5,3.4,7.5,7.5v37.5H4.5z"/><path fill="#5e9c76" d="M68,31c3.9,0,7,3.1,7,7v37H5V38c0-3.9,3.1-7,7-7H68 M68,30H12c-4.4,0-8,3.6-8,8v38h72V38 C76,33.6,72.4,30,68,30L68,30z"/><path fill="#fff" d="M28 54c0 2.3-1.7 4-4 4s-4-1.7-4-4 1.7-4 4-4S28 51.7 28 54zM56 50c-2.3 0-4 1.7-4 4s1.7 4 4 4 4-1.7 4-4S58.3 50 56 50zM40 50c-2.3 0-4 1.7-4 4s1.7 4 4 4 4-1.7 4-4S42.3 50 40 50z"/></svg>